<?xml version="1.0" encoding="UTF-8"?>
<svg version="1.1" viewBox="0 0 2048 408" width="5068" height="1010" xmlns="http://www.w3.org/2000/svg">
<path transform="translate(1502,11)" d="m0 0h23l20 3 21 6 18 8 14 8 14 10 13 12 10 10 13 17 9 15 8 16 6 15 6 20 4 20 2 19v34l-3 23-6 25-10 25-9 16-10 14-12 14-9 9-11 9-17 12-22 12-20 8-19 6-15 3h-24l-20-3-21-6-18-8-14-8-14-10-13-12-11-11-12-16-9-15-7-14-138-1 1 62 9 10 15 16 4 5v3h-166l1-5 7-7 7-8 7-7 6-7 1-62h-306l1 62 8 8 7 8 7 7 6 7v4h-165l1-5 7-8 7-7 7-8 5-5 1-63h-67l13 37 18 53v6h-150l1-4 7-8 20-20-12-36-17-50-3-8v-3h-91l2 27 4 25 5 19 6 17 8 16 8 13 7 9-1 3h-141l1-7 18-41 13-30 18-41 17-39 18-41 13-30 18-41 14-32-1-5-20-57-2-5 1-5h113l4 10 23 68 14 41 16 47 9 26 97 1-1-161-7-7-8-7-14-14 1-4h149l33 1 32 3 23 4 21 6 17 7 13 8 11 9 8 9 9 15 6 17 3 17 1 15v11l-2 18-5 19-7 16-6 10-5 7 141 1-1-182h-7l-8 3-8 10-11 17-19 32-13 22-15 26-14 24-8 13h-3v-157l1-1h321l1 1v156h-4l-10-16-15-26-35-59-14-22-12-17-6-5-12-2v183h119v-19l3-26 5-22 7-20 8-16 8-14 10-13 9-10 13-13 17-13 20-12 19-9 19-7 20-5zm-696 17-1 1v182h74l4-15 3-24 1-19v-24l-2-31-3-18-5-17-7-13-9-10-10-6-12-4-21-2zm643 14-11 4-7 7-6 12-3 14v33l4 26 6 25 8 27 7 20 1 1h52l-1 84-11 1 2 5 10 16 10 13 11 13 9 9 14 10 10 5 8 2h11l8-3 6-5 5-8 4-13 2-19-1-22-4-27-9-36-12-36-8-21-13-30-14-28-10-17-8-12-9-12-11-13-8-8-14-10-10-5-9-2zm-1e3 62-15 43-7 24-6 27-4 28-1 11v16h87l-3-11-31-92-14-41-2-5z" fill="#1F1D1D"/>
<path transform="translate(1502,11)" d="m0 0h23l20 3 21 6 18 8 14 8 14 10 13 12 10 10 13 17 9 15 8 16 6 15 6 20 4 20 2 19v34l-3 23-6 25-10 25-9 16-10 14-12 14-9 9-11 9-17 12-22 12-20 8-19 6-15 3h-24l-20-3-21-6-18-8-14-8-14-10-13-12-11-11-12-16-9-15-7-14-138-1 1 62 9 10 15 16 4 5v3h-166l1-5 7-7 7-8 7-7 6-7 1-62h-306l1 62 8 8 7 8 7 7 6 7v4h-165l1-5 7-8 7-7 7-8 5-5 1-63h-67l13 37 18 53v6h-150l1-4 7-8 20-20-12-36-17-50-3-8v-3h-91l2 27 4 25 5 19 6 17 8 16 8 13 7 9-1 3h-141l1-7 18-41 13-30 18-41 17-39 18-41 13-30 18-41 14-32-1-5-20-57-2-5 1-5h113l4 10 23 68 14 41 16 47 9 27h-72v84h970v1h-11l11 18 12 16 11 13 8 8 14 10 10 5 8 2h11l8-3 5-4 5-8 4-13 2-19-1-22-4-27-9-36-12-36-8-21-13-30-14-28-10-17-8-12-9-12-11-13-7-7-14-10-10-5-9-2h-9l-11 4-8 9-5 13-2 10v33l4 26 6 25 8 27 7 21h-110v-19l3-26 5-22 7-20 8-16 8-14 10-13 9-10 13-13 17-13 20-12 19-9 19-7 20-5zm-1053 93-15 43-7 24-6 27-4 28-1 11v16h87l-3-11-31-92-14-41-2-5z" fill="#FEFEFE"/>
<path transform="translate(1699,18)" d="m0 0h150l32 1 25 2 26 4 23 6 15 6 15 8 10 8 11 11 8 13 5 12 4 14 2 15v31l-4 21-6 16-6 12-10 14-15 15-14 10-19 10-20 7-20 5-21 3-11 1h-43l1 95 12 13 15 16 1 5h-166l1-5 10-10 7-8 7-7 3-4 1-262v-45l-25-25-4-3zm138 10-1 1v224h27l14-3 12-6 7-6 7-10 5-11 5-18 3-20 1-12v-54l-3-27-5-19-5-12-9-12-11-8-14-5-21-2z" fill="#FEFEFE"/>
<path transform="translate(13,18)" d="m0 0h165v5l-11 11-7 8-7 7-3 4-1 329 26-1 13-3 12-6 12-9 12-12 12-16 10-15 13-22 16-29 14-27 12-22 4-8h4v180h-297l1-5 17-16 11-11v-272l-1-36-14-15-11-12-2-2z" fill="#FEFEFE"/>
<path transform="translate(669,18)" d="m0 0h149l33 1 32 3 23 4 21 6 17 7 13 8 11 9 8 9 9 15 6 17 3 17 1 15v11l-2 18-5 19-7 16-6 10-6 8h-90l4-21 2-18 1-19v-24l-2-31-3-18-5-17-7-13-8-9-10-6-12-4-21-2h-12l-1 182h-107l-1-161-7-7-8-7-14-14z" fill="#FEFEFE"/>
<path transform="translate(1e3 18)" d="m0 0h321l1 1v156h-4l-10-16-15-26-35-59-14-22-12-17-6-5-12-2v183h-108l-1-182h-7l-8 3-8 10-11 17-19 32-13 22-15 26-14 24-8 13h-3v-157z" fill="#FEFEFE"/>
<path transform="translate(717,235)" d="m0 0h16l10 4 5 4 3 5 1 10-3 7-5 5-7 4-4 1h-16l-10-4-7-8-1-2v-12l4-6 6-5z" fill="#1F1D1D"/>
<path transform="translate(1290,235)" d="m0 0h16l10 4 5 4 3 5 1 10-3 7-5 5-7 4-4 1h-16l-10-4-7-8-1-2v-12l4-6 6-5z" fill="#1F1D1D"/>
<path transform="translate(1296,226)" d="m0 0 13 1 11 4 6 4 7 8 2 6v12l-4 9-7 7-11 5-4 1h-21l-10-3-9-6-6-8-2-6v-10l4-9 6-7 12-6zm-6 9-10 4-7 8-1 2v12l4 6 6 5 8 3h16l10-4 5-4 3-5 1-10-3-7-5-5-7-4-4-1z" fill="#FEFEFE"/>
<path transform="translate(723,226)" d="m0 0 13 1 11 4 6 4 7 8 2 6v12l-4 9-7 7-11 5-4 1h-21l-10-3-9-6-6-8-2-6v-10l3-8 7-8 12-6zm-6 9-10 4-7 8-1 2v12l4 6 6 5 8 3h16l10-4 5-4 3-5 1-10-3-7-5-5-7-4-4-1z" fill="#FEFEFE"/>
<path transform="translate(1402,228)" d="m0 0h13l11 12 7 8 9 10 7 8 3 4 1-42h10v54h-13l-13-14-9-11-14-15-1-2-1 41-1 1h-9z" fill="#FEFEFE"/>
<path transform="translate(583,227)" d="m0 0h19l11 4 6 5-2 5-3 2-9-6-8-2h-9l-8 3-2 2v5l7 3 24 4 10 4 4 5 1 2-1 9-5 6-8 4-4 1h-20l-12-4-8-6-2-2 1-5 4-3 8 7 10 4 12 1 9-2 4-3v-6l-7-3-28-5-8-5-2-3v-10l6-7z" fill="#FEFEFE"/>
<path transform="translate(937,228)" d="m0 0h10l1 30 2 8 4 5 9 3h10l8-3 5-6 1-4 1-33h10v37l-4 8-8 7-9 3h-18l-11-4-7-6-4-9z" fill="#FEFEFE"/>
<path transform="translate(1062,228)" d="m0 0h58v9h-24v45h-10v-45h-24z" fill="#FEFEFE"/>
<path transform="translate(829,228)" d="m0 0h10v45h34v9h-44z" fill="#FEFEFE"/>
<path transform="translate(1184,228)" d="m0 0h10l1 1v52l-1 1h-9l-1-1z" fill="#FEFEFE"/>
</svg>
