<?xml version="1.0" standalone="no"?>
<!DOCTYPE svg PUBLIC "-//W3C//DTD SVG 20010904//EN"
 "http://www.w3.org/TR/2001/REC-SVG-20010904/DTD/svg10.dtd">
<svg version="1.0" xmlns="http://www.w3.org/2000/svg"
 width="290.000000pt" height="290.000000pt" viewBox="0 0 290.000000 290.000000"
 preserveAspectRatio="xMidYMid meet">
<metadata>
Created by potrace 1.10, written by Peter Selinger 2001-2011
</metadata>
<g transform="translate(0.000000,290.000000) scale(0.050000,-0.050000)"
fill="#000000" stroke="none">
<path d="M0 2900 l0 -2900 2900 0 2900 0 0 2900 0 2900 -2900 0 -2900 0 0
-2900z m3790 2189 c713 -269 1051 -1064 740 -1744 -58 -127 -53 -126 -215 -17
-72 48 -171 102 -220 121 l-89 34 49 121 c145 361 -24 784 -379 948 l-126 58
-790 6 c-967 7 -1098 -11 -1375 -198 l-85 -57 0 401 0 400 1165 -6 1165 -6
160 -61z m-228 -1027 c121 -121 106 -317 -30 -400 -57 -34 -125 -38 -795 -47
-657 -9 -739 -14 -793 -46 -121 -71 -143 -245 -46 -354 l59 -65 816 -12 c895
-14 903 -15 1166 -141 1011 -488 909 -1962 -162 -2353 l-147 -54 -1165 -6
-1165 -6 0 903 0 903 65 -44 c293 -196 439 -220 1321 -220 810 0 825 -2 897
-140 48 -89 47 -174 -2 -254 -85 -139 -61 -135 -955 -142 l-806 -6 0 -230 0
-230 875 6 875 6 111 55 c573 281 563 1080 -17 1351 l-114 54 -830 11 c-701 9
-843 16 -913 43 -697 274 -669 1242 43 1468 59 19 288 26 857 27 l778 1 77
-78z"/>
</g>
</svg>
